<svg xmlns="http://www.w3.org/2000/svg" viewBox="0 0 32 40" x="0px" y="0px"><g data-name="20-Equalizer"><path d="M9,12a1,1,0,1,1-1-1A1,1,0,0,1,9,12ZM30,5V27a3,3,0,0,1-3,3H5a3,3,0,0,1-3-3V5A3,3,0,0,1,5,2H27A3,3,0,0,1,30,5ZM9,18a1,1,0,0,0-2,0v8a1,1,0,0,0,2,0Zm2-6A3,3,0,0,0,9,9.18V6A1,1,0,0,0,7,6V9.18A3,3,0,1,0,11,12Zm6,12a1,1,0,0,0-2,0v2a1,1,0,0,0,2,0Zm2-6a3,3,0,0,0-2-2.82V6a1,1,0,0,0-2,0v9.18A3,3,0,1,0,19,18Zm6,0a1,1,0,0,0-2,0v8a1,1,0,0,0,2,0Zm2-6a3,3,0,0,0-2-2.82V6a1,1,0,0,0-2,0V9.18A3,3,0,1,0,27,12Zm-3-1a1,1,0,1,0,1,1A1,1,0,0,0,24,11Zm-8,6a1,1,0,1,0,1,1A1,1,0,0,0,16,17Z"/></g><text x="0" y="47" fill="#000000" font-size="5px" font-weight="bold" font-family="'Helvetica Neue', Helvetica, Arial-Unicode, Arial, Sans-serif">Created by Nawicon</text><text x="0" y="52" fill="#000000" font-size="5px" font-weight="bold" font-family="'Helvetica Neue', Helvetica, Arial-Unicode, Arial, Sans-serif">from the Noun Project</text></svg>